<svg width="43" height="47" viewBox="0 0 43 47" fill="none" xmlns="http://www.w3.org/2000/svg">
<path d="M8.11499 28.0816L16.4622 32.7054V41.3648L8.11499 36.7677V28.0816Z" fill="#F28F1E"/>
<path d="M16.4622 41.3648L36.7677 29.378L36.5982 30.4497L43 20.8899L36.3451 19.4241V20.8328L16.4622 32.7054V41.3648Z" fill="#F6BF22"/>
<path d="M25.312 27.423L32.894 22.8944V13.5078L25.312 17.6957V27.423Z" fill="#0E4C9C"/>
<path d="M25.3119 17.6957L5.54134 5.7945L4.22977 6.4855L2.49561 0L13.7553 1.09266L12.5427 1.46005L32.8939 13.5078L25.3119 17.6957Z" fill="#306BB6"/>
<path d="M16.8371 12.596L8.22715 17.6957L0.698486 13.2756L9.5292 8.19492L16.8371 12.596Z" fill="#62A4D9"/>
<path d="M8.22728 17.6957V40.9403L9.30661 41.7018L4.69614 46.4836L0 36.3946L0.782372 37.0075V13.2756L8.22728 17.6957Z" fill="#7FCFEE"/>
</svg>
